<?xml version="1.0" encoding="UTF-8" standalone="no"?>
<!-- Created with Inkscape (http://www.inkscape.org/) -->

<svg
   version="1.1"
   id="svg162"
   width="698.94226"
   height="698.94226"
   viewBox="0 0 698.94226 698.94226"
   sodipodi:docname="samcoin.svg"
   inkscape:version="1.2.2 (b0a8486541, 2022-12-01)"
   xmlns:inkscape="http://www.inkscape.org/namespaces/inkscape"
   xmlns:sodipodi="http://sodipodi.sourceforge.net/DTD/sodipodi-0.dtd"
   xmlns:xlink="http://www.w3.org/1999/xlink"
   xmlns="http://www.w3.org/2000/svg"
   xmlns:svg="http://www.w3.org/2000/svg">
  <defs
     id="defs166" />
  <sodipodi:namedview
     id="namedview164"
     pagecolor="#ffffff"
     bordercolor="#666666"
     borderopacity="1.0"
     inkscape:showpageshadow="2"
     inkscape:pageopacity="0.0"
     inkscape:pagecheckerboard="0"
     inkscape:deskcolor="#d1d1d1"
     showgrid="false"
     inkscape:zoom="1.1523438"
     inkscape:cx="252.96271"
     inkscape:cy="347.11864"
     inkscape:window-width="2560"
     inkscape:window-height="1358"
     inkscape:window-x="0"
     inkscape:window-y="0"
     inkscape:window-maximized="1"
     inkscape:current-layer="g4227" />
  <g
     inkscape:groupmode="layer"
     inkscape:label="Image"
     id="g168"
     transform="translate(-150.15729,-121.52041)">
    <g
       id="g342"
       transform="translate(509.73981,-16.955969)">
      <g
         id="g4227">
        <circle
           style="fill:#f9de67;fill-opacity:1;stroke:none;stroke-width:1.05772;stroke-opacity:1"
           id="path1839"
           cx="-10.111385"
           cy="487.94751"
           r="349.47113" />
        <path
           id="path344"
           style="fill:#252324;stroke-width:1.02616"
           d="m -192.14727,242.69263 c -10.77263,0.0688 -30.9132,16.98421 -37.66918,31.63851 -4.83334,10.48397 -1.21946,18.90833 15.05765,35.08976 14.69257,14.60617 24.09975,19.53593 44.84427,23.50541 19.90262,3.80836 23.46233,5.40117 31.9752,14.30806 4.09832,4.28801 7.73927,8.72121 8.09101,9.85071 0.87394,2.80628 2.58923,3.72228 3.89618,2.08237 1.39422,-1.74939 5.702,-3.05311 5.702,-1.72562 0,0.55417 -2.07797,2.17006 -4.61771,3.58955 -3.61721,2.0217 -4.61771,2.2488 -4.61771,1.05221 0,-0.84011 -0.46177,-1.24068 -1.02616,-0.89188 -1.70428,1.05329 -1.15826,4.6264 1.21456,7.95874 l 2.23871,3.1446 -4.03447,-0.73354 c -6.37976,-1.15827 -12.39256,-1.72412 -10.70652,-1.00811 2.22785,0.94611 5.13077,3.62709 5.13077,4.73795 0,0.52516 -2.13514,-0.24036 -4.74597,-1.69957 -5.48109,-3.06343 -6.26455,-3.25373 -4.46737,-1.08829 2.56046,3.08518 0.34934,2.3456 -4.85823,-1.62542 -2.91614,-2.2237 -5.56046,-4.0425 -5.87634,-4.0425 -1.44827,0 -0.32611,5.29092 2.08238,9.82064 l 2.65558,4.9945 -2.10242,1.70359 c -2.00708,1.62521 -3.38147,1.15201 -30.10729,-10.36378 -15.40155,-6.63633 -32.80682,-14.20526 -38.67929,-16.81936 -5.87249,-2.61411 -10.86879,-4.56165 -11.10335,-4.3271 -0.23456,0.23457 4.10762,2.95825 9.65029,6.05072 20.73679,11.56986 42.44619,23.30784 51.72273,27.96679 l 9.58212,4.81211 -3.55146,1.88998 c -1.9529,1.03985 -5.16766,1.91777 -7.14301,1.9501 -2.70551,0.0442 -3.21182,0.30488 -2.05232,1.05421 2.40273,1.55277 9.04431,1.19842 11.83689,-0.63132 1.58767,-1.04028 2.52931,-1.22526 2.52931,-0.49705 0,0.63804 -3.2324,3.51692 -7.1831,6.39945 -3.9507,2.88253 -7.1831,5.40918 -7.1831,5.6138 0,0.86239 10.72917,-3.94704 13.6988,-6.1409 5.92697,-4.37869 6.3592,-4.05938 1.427,1.0562 -4.63327,4.80556 -6.96584,9.62055 -6.87646,14.20187 0.0293,1.49628 0.4378,1.14877 1.49113,-1.27469 1.97566,-4.54548 3.60923,-4.25558 2.89208,0.51309 -0.72247,4.80406 -6.64812,20.95443 -11.22759,30.60232 -1.90172,4.00647 -3.45728,8.50231 -3.45728,9.99099 0,2.79178 3.98622,11.99722 5.19493,11.99722 0.37431,0 2.423,1.38531 4.55357,3.07847 7.81543,6.21092 15.14355,2.59687 21.84793,-10.77465 3.66863,-7.31694 5.55891,-9.13968 15.31217,-14.76302 4.07083,-2.34709 7.87273,-5.06567 8.44777,-6.04071 0.91586,-1.55297 1.18058,-1.58088 2.14251,-0.23248 1.89143,2.65141 0.26442,12.8055 -3.12858,19.52705 -5.48866,10.87296 -17.38926,29.09523 -21.42705,32.80695 -2.14889,1.97534 -4.90038,5.53777 -6.11485,7.91865 -2.71637,5.32519 -5.24274,15.71797 -5.26306,21.65151 -0.0128,3.73489 -0.29791,4.34594 -1.81181,3.89618 -0.98767,-0.29343 -3.18108,-0.83944 -4.87424,-1.21455 -1.69317,-0.37511 -5.71428,-1.83709 -8.93679,-3.24883 -9.23973,-4.04777 -13.94168,-1.63162 -19.91587,10.2315 -4.89955,9.72922 -14.12535,23.93248 -18.9899,29.23746 -4.50413,4.91191 -4.94455,7.75795 -1.97817,12.79088 1.10012,1.86652 2.68546,6.02883 3.52341,9.24946 0.83794,3.2206 2.4086,7.83833 3.48934,10.26156 2.20068,4.93438 10.9884,15.18191 13.01936,15.18191 2.33891,0 6.04351,-10.28355 6.48763,-18.00586 0.48221,-8.38442 0.13398,-8.87896 -8.13108,-11.53223 -6.1214,-1.9651 -7.61535,-4.55631 -4.06255,-7.04481 1.30253,-0.91231 2.14451,-2.62427 2.14451,-4.35716 0,-4.55415 9.42275,-22.75867 13.74289,-26.5518 4.16599,-3.65779 8.74144,-4.35723 10.96706,-1.67553 1.14666,1.38165 1.08657,1.79295 -0.38681,2.6175 -2.43709,1.36386 -4.82616,6.33683 -4.82616,10.04712 0,1.71414 1.14206,7.50903 2.53734,12.87907 2.92176,11.24523 5.02672,26.44419 4.07656,29.43789 -1.29746,4.08799 0.46255,8.82121 4.12267,11.08329 1.94835,1.20415 4.42428,4.09627 5.61781,6.56179 3.35895,6.93868 7.62079,10.0521 19.21039,14.03949 l 5.47149,1.88398 0.63534,-2.53533 c 1.2445,-4.95852 -0.11342,-15.21782 -2.70969,-20.459 -2.74967,-5.55073 -3.32757,-5.75386 -11.92506,-4.19683 l -4.26097,0.77163 0.10218,-3.6176 c 0.0604,-2.12884 -0.63655,-4.43383 -1.69356,-5.60178 -4.33331,-4.78827 -7.64722,-18.79295 -6.39943,-27.04485 1.14845,-7.59498 1.28589,-7.63536 11.78877,-3.43322 6.34048,2.53678 11.79976,3.95974 16.80332,4.37921 l 7.41358,0.62131 7.69818,7.82844 c 9.01202,9.16393 23.124411,18.89209 33.941341,23.39518 7.67566,3.19539 26.876432,7.40465 42.795957,9.38372 12.56827,1.56246 14.354947,3.34068 2.52932,2.5173 l -9.497962,-0.66139 1.529219,4.33311 c 2.665582,7.55507 7.5303,15.71906 14.398258,24.15878 3.663531,4.50196 6.659999,8.64121 6.659999,9.19935 0,0.55813 -2.135797,3.18419 -4.74798,5.83625 -3.858653,3.91757 -4.77286,5.55099 -4.874244,8.7043 -0.101439,3.1542 0.354275,4.14116 2.439127,5.26906 3.461767,1.87283 12.897561,1.05182 18.031901,-1.56928 l 4.03047,-2.05833 -0.513077,7.84448 c -0.615664,9.41247 -2.616059,13.25522 -13.163669,25.28916 -8.912286,10.16816 -18.156407,18.3222 -23.126606,20.39888 -2.076478,0.8676 -4.557257,2.93882 -5.511595,4.60167 l -1.733639,3.02234 -15.430429,0.59727 c -8.48633,0.32793 -28.59092,1.07466 -44.675911,1.6615 -61.20967,2.23309 -101.58954,6.26588 -101.58954,10.14531 0,5.09821 72.08241,10.9949 155.975863,12.75882 123.961225,2.60639 280.565017,-4.71398 277.807907,-12.9853 -0.66294,-1.98884 -8.13106,-3.5289 -27.62004,-5.69797 -24.11985,-2.68449 -49.94553,-4.12775 -100.368964,-5.60779 l -40.533186,-1.18849 -0.248526,-2.5654 c -0.187294,-1.92161 0.577522,-3.08187 3.050416,-4.62171 3.286318,-2.04636 3.301506,-2.09547 3.371079,-10.77465 0.0625,-7.79072 0.745031,-10.79394 6.403466,-28.21531 8.731793,-26.88376 8.729752,-26.86597 3.387118,-33.79102 -9.346843,-12.11525 -10.637265,-23.22031 -4.745976,-40.84786 4.409631,-13.19417 5.986795,-22.14795 5.54566,-31.47216 -0.189541,-4.00646 -0.06054,-7.28433 0.286595,-7.28329 1.593458,0.006 6.085797,4.51563 8.928776,8.96284 8.068751,12.62177 11.616803,31.32959 12.049314,63.53755 0.185902,13.843 0.819475,25.61471 1.519199,28.21329 2.419396,8.98495 7.371886,16.2462 14.700899,21.55531 5.89472,4.27012 7.10859,3.57576 2.40104,-1.37289 -4.4888,-4.71873 -7.363366,-10.41491 -8.44775,-16.73717 l -0.703481,-4.10463 3.87013,5.41939 c 7.167151,10.03836 24.491311,19.31428 40.573291,21.72365 6.39682,0.95837 9.13908,0.88804 15.28213,-0.39282 4.11753,-0.85853 7.68078,-1.75634 7.91864,-1.99419 0.23785,-0.23784 -1.79051,-0.74462 -4.50747,-1.12837 -2.71696,-0.38376 -6.3257,-1.31725 -8.01886,-2.07436 l -3.07847,-1.37689 4.13871,-0.0841 c 10.13654,-0.20418 20.45183,-5.0181 25.81024,-12.0433 1.38926,-1.82142 3.40981,-5.76204 4.48943,-8.75842 1.07961,-2.99636 1.39133,-4.52392 0.69346,-3.39514 -2.89097,4.67597 -9.08858,9.62473 -14.16777,11.31178 -7.47949,2.48428 -14.84891,1.54022 -24.25098,-3.10653 -8.03798,-3.97257 -10.33504,-6.79053 -3.12657,-3.83607 2.89561,1.1868 7.11985,1.78776 12.57042,1.78776 7.07763,0 8.86235,-0.38315 12.9392,-2.77984 2.60076,-1.52892 5.49485,-3.94977 6.43151,-5.37931 1.62095,-2.47386 1.47767,-2.44162 -2.95019,0.67944 -6.31514,4.45131 -15.58129,5.22082 -22.50331,1.86992 -8.15857,-3.94949 -17.16239,-15.79126 -19.9359,-26.21911 -1.31866,-4.95786 -3.61922,-31.23004 -2.8059,-32.04334 0.31889,-0.31891 1.83083,2.14755 3.36106,5.47951 2.28054,4.9657 2.79256,7.57135 2.83597,14.44636 0.0567,8.98675 1.01385,8.97296 2.67963,-0.038 1.48342,-8.02453 -0.74189,-17.30042 -7.82044,-32.61255 -6.70198,-14.49751 -11.38108,-22.30619 -16.66904,-27.81446 -2.03179,-2.11644 -3.35702,-3.84809 -2.94419,-3.84809 1.38294,0 12.45167,5.96092 16.08381,8.66221 1.97535,1.46911 4.91802,4.39215 6.53975,6.49565 l 2.9502,3.82604 -0.69947,-3.07847 c -1.37496,-6.05824 -7.52665,-13.74164 -14.73298,-18.40067 -11.00129,-7.11254 -19.01619,-10.07992 -27.587978,-10.21547 -8.239942,-0.1303 -7.60498,-1.47847 1.120359,-2.37901 6.818173,-0.70369 16.189479,2.21426 24.222909,7.53986 l 5.62182,3.72583 -3.46328,-3.6577 c -1.90562,-2.01225 -6.29245,-5.194 -9.74849,-7.06885 -5.98281,-3.24559 -6.80116,-3.40716 -17.059857,-3.40716 -9.180188,0 -11.533912,0.35777 -15.905431,2.41709 -2.821932,1.32933 -6.613839,3.05991 -8.427714,3.84608 l -3.29893,1.42899 -4.058533,-5.97656 c -8.517196,-12.54221 -19.179992,-19.86245 -34.724993,-23.83819 -4.298093,-1.09927 -8.048791,-2.23257 -8.33552,-2.51931 -0.609659,-0.60964 1.339145,-2.18027 9.077081,-7.31738 11.306391,-7.50613 13.711645,-10.88157 17.015765,-23.87016 1.292094,-5.07929 2.494243,-7.74305 3.62562,-8.0389 1.836858,-0.48035 1.753708,0.56058 3.844081,-48.50796 0.972039,-22.81713 2.710892,-39.70475 4.258952,-41.38699 0.437873,-0.47583 1.979242,-0.0889 3.4272,0.8598 2.622149,1.71809 2.647321,1.70687 5.952512,-2.98227 1.825142,-2.58935 3.864516,-4.70789 4.53353,-4.70789 1.680917,0 7.673108,2.48089 17.372516,7.19312 4.515077,2.19353 14.933685,6.07543 23.150661,8.62813 12.31614,3.82618 15.43765,5.20051 17.77736,7.82644 1.56099,1.75196 5.69017,4.46865 9.17528,6.0347 3.48512,1.56606 8.84868,4.99375 11.91907,7.61801 5.17568,4.42365 8.26938,5.90764 8.26938,3.96633 0,-0.44257 -2.53974,-3.31184 -5.64386,-6.37741 -4.73548,-4.67665 -6.98542,-8.20924 -5.229,-8.20924 0.228,0 4.35556,1.89119 9.17329,4.20283 4.81774,2.31172 9.25738,3.89476 9.86472,3.5194 1.83547,-1.13438 0.41612,-2.22113 -8.16314,-6.24713 -11.88396,-5.5768 -10.79539,-7.44975 2.05031,-3.52741 7.595,2.31907 11.6506,2.62787 11.05523,0.84177 -0.22194,-0.66583 -4.76136,-2.35823 -10.08922,-3.75991 -10.78029,-2.83612 -10.97045,-2.9183 -9.62021,-4.14471 0.52676,-0.47842 4.65219,-0.49506 9.16726,-0.038 5.17691,0.52398 8.5857,0.45628 9.22741,-0.18239 1.6154,-1.60777 -1.13593,-2.70443 -8.6061,-3.43121 -12.86806,-1.25194 -15.50058,-1.79848 -15.50058,-3.21676 0,-0.76074 1.82639,-1.87414 4.05854,-2.4752 2.23214,-0.60106 4.77672,-1.81048 5.65388,-2.68764 1.80898,-1.809 1.07432,-4.14901 -0.82373,-2.62352 -0.65524,0.52663 -2.8087,1.27266 -4.78406,1.65948 -1.97535,0.38684 -6.47499,1.63163 -9.99902,2.76582 -5.47076,1.76074 -6.97068,1.88177 -10.26157,0.83174 -4.57218,-1.45886 -12.30145,-5.70617 -22.7398,-12.49626 -4.178796,-2.7183 -10.181823,-5.67895 -13.340034,-6.57983 -12.271718,-3.50053 -22.936607,-9.30494 -36.342383,-19.77957 -10.013437,-7.82403 -12.016778,-8.57317 -21.61744,-8.06896 -4.57839,0.24043 -9.133598,0.79756 -10.121274,1.2366 -1.223588,0.54392 -1.795774,0.35011 -1.795774,-0.60528 0,-0.7712 -0.923542,-1.97871 -2.052315,-2.68363 -1.678236,-1.04809 -2.052314,-2.3916 -2.052314,-7.37751 0,-4.0657 0.467276,-6.37136 1.400945,-6.91855 2.505432,-1.46834 4.979329,-7.70708 5.377302,-13.56251 0.21412,-3.15041 0.891958,-6.95528 1.507169,-8.45377 1.713814,-4.17438 0.784837,-7.28562 -2.858007,-9.57212 -1.81251,-1.13765 -3.313257,-2.86915 -3.335011,-3.84607 -0.02351,-1.05643 -1.161599,-2.05801 -2.807903,-2.47121 -1.522414,-0.38211 -3.8713,-2.00559 -5.220973,-3.60958 -2.7351478,-3.25054 -4.9230448,-3.88757 -3.8460838,-1.12036 1.15306,2.96273 1.120084,3.56826 -0.222468,4.06054 -0.783674,0.28735 -1.310724,-0.46117 -1.354849,-1.92405 -0.06515,-2.16294 -0.145859,-2.20128 -0.84778,-0.40886 -0.472351,1.20621 -1.045157,1.55159 -1.459065,0.88186 -0.927657,-1.50097 -15.0656682,-1.67778 -15.0656682,-0.1884 0,0.62292 -0.715448,0.85722 -1.591345,0.5211 -0.913155,-0.35042 -1.325533,-0.17884 -0.96603,0.40285 0.857559,1.38756 -0.86552,1.28499 -2.286806,-0.1363 -0.63316,-0.63315 -0.92537,-1.73991 -0.649366,-2.45915 0.276006,-0.71926 -0.555624,-2.04708 -1.847883,-2.95221 -3.537498,-2.47776 -4.61543,-1.97725 -1.920037,0.89187 l 2.385014,2.53733 -3.421191,-0.98206 c -4.622444,-1.32571 -5.008689,-0.53932 -0.827739,1.68153 l 3.429207,1.82183 -3.078471,0.69746 c -1.693136,0.38363 -2.47444,0.75293 -1.735647,0.81973 0.738739,0.0668 1.05724,0.58451 0.707486,1.15042 -0.425085,0.6878 -1.272197,0.6878 -2.557376,0 -2.614162,-1.39905 -3.76161,-1.29643 -2.262756,0.20243 1.769882,1.76989 1.515187,2.91699 -0.477003,2.15251 -1.288902,-0.49459 -1.483877,-0.29612 -0.797676,0.8037 0.500005,0.8014 1.010691,2.12713 1.134384,2.94619 0.297524,1.97005 4.479771,5.1281 6.828353,5.15683 1.276394,0.0157 1.708319,0.59082 1.368877,1.81983 -1.577929,5.71323 -1.709,11.38252 -0.294619,12.7969 0.972386,0.97239 1.173365,1.99726 0.575209,2.94219 -2.0397,3.2222 -0.776327,3.15162 1.615396,-0.0902 3.098836,-4.20023 3.261892,-6.15694 0.513078,-6.15694 -2.214331,0 -2.514334,-1.53601 -1.394932,-7.13299 0.468256,-2.34127 1.821655,-4.01976 4.711904,-5.84428 3.896601,-2.45983 4.18871,-2.49694 7.5077812,-0.92195 4.127373,1.95859 5.201426,3.41468 3.657687,4.95842 -1.75175,1.75176 -1.362591,3.60183 0.909913,4.32309 3.64907099,1.15817 2.43780599,3.59019 -1.795774,3.60558 -6.0828372,0.0221 -8.4656512,0.98827 -8.4718062,3.43922 -0.0032,1.20404 -0.486498,3.92226 -1.074259,6.0387 -0.781952,2.81567 -1.621609,3.8481 -3.130581,3.8481 -1.926145,0 -1.956965,0.14866 -0.464976,2.27878 0.878573,1.25434 1.597357,3.13529 1.597357,4.17878 0,1.72481 0.147455,1.75053 1.613392,0.28459 1.768425,-1.76844 4.543548,-2.16985 4.543548,-0.65737 0,0.52514 -1.038984,1.15435 -2.308852,1.39894 -1.394342,0.26856 -0.750114,0.50088 1.625416,0.58523 4.8458482,0.17215 4.6741562,2.71054 -0.182383,2.69565 -4.351373,-0.0134 -4.108667,1.15724 0.416877,2.00624 2.6875832,0.50418 3.5688152,1.14582 3.3269922,2.42309 -0.485608,2.56484 -6.8032732,2.99744 -7.5779282,0.51909 -0.319986,-1.02372 -1.675179,-4.39965 -3.01233,-7.50378 -1.337164,-3.10413 -2.652367,-6.33651 -2.922143,-7.18309 -0.322644,-1.01252 -0.496962,-0.83694 -0.50907,0.51308 -0.01011,1.12878 1.485426,5.74648 3.322984,10.26156 3.280426,8.06033 3.429138,8.23584 8.173179,9.68034 4.6042282,1.40196 4.9059552,1.72686 6.4134822,6.91254 1.72195,5.92331 1.361158,7.52182 -1.695565,7.52182 -1.614984,0 -1.994827,-0.72793 -2.006217,-3.8481 -0.0077,-2.11645 -0.27892,-4.83788 -0.603269,-6.0467 l -0.589237,-2.19862 -4.2709782,2.44312 c -2.647409,1.5139 -5.9366,2.44599 -8.65419,2.45317 -4.749716,0.0134 -15.329623,4.31237 -20.974083,8.52191 -1.855841,1.38403 -6.607501,3.78105 -10.558198,5.32519 -3.950697,1.54415 -7.897833,3.43621 -8.772433,4.20684 -3.094033,2.72627 -9.96855,4.51312 -13.1296,3.41119 -1.61765,-0.56394 -8.41508,-1.87169 -15.10576,-2.90612 -6.69067,-1.03446 -12.300331,-2.28298 -12.466201,-2.77384 -2.15887,-6.38918 -10.74081,-11.88802 -12.80291,-8.20324 -0.51294,0.91659 -1.54813,1.66751 -2.30084,1.66751 -0.7527,0 -1.68435,1.03898 -2.07036,2.30884 -0.4414,1.45215 -0.90265,1.81952 -1.2426,0.99209 -0.63695,-1.55042 2.29113,-6.3794 3.86814,-6.3794 0.59966,0 -3.14678,-4.50228 -8.32551,-10.00503 -5.17875,-5.50277 -10.245,-11.62123 -11.25766,-13.59658 -2.56617,-5.00574 -5.76314,-16.87774 -8.73637,-32.43819 -3.96971,-20.7757 -11.52051,-33.64554 -28.23134,-48.11714 -7.62006,-6.59897 -13.63825,-9.75573 -18.53696,-9.72444 z m 1.87194,5.72805 c 2.44141,0.0655 4.68518,0.93844 7.47772,2.86804 5.58504,3.85915 10.7891,9.15486 15.80722,15.1378 5.01814,5.98294 9.43315,12.9789 12.8009,18.0319 3.36777,5.05301 5.01944,18.22862 -0.6674,23.15467 -2.61363,2.26398 -4.93953,4.54745 -7.22919,6.83638 -0.12076,0.32317 -0.25909,0.57895 -0.4249,0.68143 -0.063,0.0389 -0.16651,0.0345 -0.29461,0.004 -2.45032,2.46338 -4.84328,4.93372 -7.41358,7.39355 -5.19909,4.97555 -10.24475,4.8232 -18.14414,0.44492 -7.89939,-4.37828 -13.07386,-6.64933 -19.70142,-13.35807 -6.62755,-6.70875 -13.49177,-13.60952 -16.69708,-20.36881 -0.99476,-2.09772 -1.63608,-4.04564 -1.92405,-5.96255 -0.0942,-0.21403 -0.11835,-0.36195 -0.0601,-0.41887 -0.49219,-4.11093 0.8588,-8.10636 5.10073,-13.09954 6.3591,-7.48529 9.34904,-10.79296 12.02127,-13.02338 2.67222,-2.23039 3.52229,-3.74399 10.68645,-6.34533 3.58209,-1.30067 6.22082,-2.04154 8.66222,-1.97615 z m 173.153958,33.24387 c -0.282192,0 -0.513077,0.23089 -0.513077,0.51308 0,0.28219 0.230885,0.51308 0.513077,0.51308 0.282194,0 0.513079,-0.23089 0.513079,-0.51308 0,-0.28219 -0.230885,-0.51308 -0.513079,-0.51308 z m 13.8531182,28.73239 c 0.564386,0 1.026158,0.46178 1.026158,1.02616 0,0.56439 -0.461772,1.02616 -1.026158,1.02616 -0.564386,0 -1.026156,-0.46177 -1.026156,-1.02616 0,-0.56438 0.46177,-1.02616 1.026156,-1.02616 z M -150.32937,311.4231 c 0.69785,0 1.72082,1.73165 2.27279,3.84808 2.51941,9.66039 4.20483,16.50819 4.20483,17.07791 0,0.34183 -0.8081,0.55576 -1.79579,0.475 -1.91184,-0.15624 -17.16846,-4.14342 -19.75351,-5.16286 -1.13387,-0.44716 0.48044,-2.66638 6.13089,-8.42371 4.21878,-4.29856 8.24294,-7.81442 8.94079,-7.81442 z m 146.3355922,2.18659 c 4.15594999,0.0334 5.630553,1.25481 3.88416399,3.35907 -0.698093,0.84116 -2.81712499,2.44272 -4.70989999,3.55948 l -3.441233,2.03228 -1.671514,-2.55137 c -2.7847512,-4.25007 -1.6969922,-5.97726 3.994395,-6.33933 0.701553,-0.0446 1.35038,-0.0648 1.944088,-0.0601 z M -135.64852,337.20127 c 0.39312,-0.0598 0.60804,0.2505 0.82976,0.90192 0.28813,0.84657 3.68355,4.80506 7.54585,8.79848 3.86231,3.99344 7.02277,7.57217 7.02277,7.95272 0,1.41426 -1.76538,0.61612 -4.07457,-1.84187 -1.30919,-1.39356 -2.78658,-2.28289 -3.2829,-1.97615 -0.49633,0.30674 -0.77438,0.12453 -0.61931,-0.40686 0.4956,-1.69831 -6.43179,-9.54091 -7.73626,-8.75841 -0.70586,0.42342 -0.62583,1.7e-4 0.19041,-1.00611 2.04997,-2.52721 0.57525,-2.12844 -1.88196,0.50907 -1.58799,1.7045 -2.09239,1.8658 -2.09239,0.67141 0,-0.86553 0.99139,-2.45227 2.20263,-3.52741 0.93198,-0.82728 1.50288,-1.25684 1.89597,-1.31679 z m 171.109671,3.98439 c 3.386983,-0.004 5.381519,0.78034 8.990899,3.53544 2.550928,1.94717 6.017347,4.3548 7.704195,5.35124 4.085808,2.41355 3.865493,3.40353 -0.781644,3.51539 -3.477728,0.0838 -3.206125,0.26378 2.821931,1.87595 10.969463,2.93371 15.646748,6.66402 5.495553,4.3832 -2.216017,-0.4979 -6.090744,-0.57097 -8.610103,-0.16434 l -4.581626,0.73756 5.130783,0.21043 c 2.821932,0.11519 8.190795,0.75013 11.931076,1.41097 l 6.800301,1.20253 -4.437328,5.04059 c -2.440777,2.77278 -5.49974,7.04415 -6.798291,9.49195 -1.298549,2.44779 -2.728211,4.45136 -3.176683,4.45136 -0.448472,0 -3.367467,-1.92926 -6.487631,-4.28501 -6.282866,-4.74359 -10.355622,-11.4568 -11.67454,-19.24646 -0.74032,-4.37239 -0.803356,-4.44644 -0.915926,-1.09028 -0.06637,1.97908 0.310776,5.09602 0.835757,6.92656 1.046166,3.64775 0.878938,3.83336 -2.048304,2.26676 -1.18715,-0.6353 -1.986175,-0.67186 -1.986175,-0.0902 0,0.53489 -2.391399,3.83432 -5.315173,7.33343 l -5.317175,6.36337 4.24893,-2.16856 c 2.336905,-1.1922 5.307522,-2.15245 6.599872,-2.13449 2.32138,0.0322 2.324174,0.051 0.296624,1.62141 -1.128771,0.87428 -4.592055,2.89917 -7.696176,4.49945 -5.853769,3.01783 -17.6646828,14.07703 -13.853119,12.97127 1.12877,-0.32745 5.214939,-1.56548 9.079084,-2.74979 3.864143,-1.18429 7.221316,-1.95597 7.461684,-1.7156 0.566315,0.56631 -23.5438958,24.23103 -33.3040028,32.6887 -4.140744,3.5882 -9.6559232,8.3728 -12.2557602,10.63035 -3.214403,2.79119 -4.45497,3.44791 -3.876147,2.05232 1.462261,-3.52566 4.678268,-15.27195 4.62973,-16.90955 -0.02546,-0.85878 -0.679766,-0.17596 -1.455057,1.51719 -1.300324,2.83981 -1.41628,2.1986 -1.493139,-8.26135 -0.04584,-6.23648 -0.53084,-11.78452 -1.076262,-12.32992 -2.621006,-2.62102 -4.550707,-15.55673 -4.431314,-29.69042 0.08876,-10.50721 -0.102437,-12.98799 -0.709492,-9.23541 -0.456495,2.82194 -1.341316,6.43004 -1.966131,8.01885 -0.624818,1.5888 -1.13639,4.24398 -1.13639,5.90041 0,5.25896 -1.873877,3.24561 -2.687649,-2.88807 -0.430544,-3.24522 -0.958637,-5.0923 -1.174468,-4.10463 -0.614472,2.812 -2.281068,2.10326 -2.413072,-1.02615 -0.07893,-1.87107 -0.282696,-2.1936 -0.603268,-0.95401 -0.467743,1.80865 -0.532879,1.80865 -1.990184,0 -1.402456,-1.74059 -1.430143,-1.71447 -0.422894,0.37077 0.595053,1.23189 1.574969,3.54074 2.178585,5.13079 l 1.098308,2.89208 -2.894089,-2.68363 c -1.590808,-1.47551 -4.046503,-2.9416 -5.45746,-3.25684 -2.292352,-0.51216 -2.360723,-0.44418 -0.64737,0.63131 1.054602,0.66196 2.90169,2.00967 4.10463,2.9943 2.098557,1.71768 2.026826,1.72562 -1.77172,0.19641 -2.17745,-0.87659 -4.172623,-1.38107 -4.433323,-1.12036 -0.260715,0.26071 0.483863,3.57826 1.655477,7.37149 2.565495,8.30611 3.599813,16.887 2.27078,18.84763 -1.031362,1.52146 -4.256946,0.87478 -4.256946,-0.85379 0,-0.56441 0.645513,-0.77797 1.435006,-0.475 2.389824,0.91705 2.703146,-1.08664 1.11835,-7.17108 -2.174506,-8.34848 -6.08793,-15.48282 -10.22348,-18.63717 -4.150202,-3.16552 -3.983589,-4.07697 0.917924,-4.99651 1.942654,-0.36444 6.4507,-2.62398 10.017054,-5.02054 3.566352,-2.39658 8.792488,-5.35711 11.614417,-6.57985 5.678952,-2.46065 16.912656,-3.72447 16.963656,-1.90799 0.01716,0.6108 0.50099,0.30423 1.076262,-0.68344 1.591721,-2.73283 3.3202302,-2.20192 2.5694002,0.78965 -2.3325952,9.29377 10.05622799,8.92641 20.3968718,-0.60527 2.585359,-2.38308 4.986838,-4.04616 5.337218,-3.69577 1.327261,1.32725 -7.0136398,9.82872 -12.1575528,12.39205 -8.276121,4.12417 -13.8143412,3.24496 -16.1359162,-2.56139 -0.702937,-1.75807 -1.005931,-1.95894 -1.052211,-0.69346 -0.116558,3.18881 5.4027912,8.30145 8.8566152,8.20325 5.06544399,-0.14402 12.438635,-4.26616 16.5207248,-9.23741 9.568852,-11.65317 14.291005,-14.58046 23.547494,-14.59268 z m -56.819427,13.44226 c -0.233012,-0.0824 -0.14963,0.30651 0.198416,1.22056 0.385353,1.01203 0.958736,1.5806 1.27468,1.26466 0.315942,-0.31595 0.0019,-1.14379 -0.699471,-1.83987 -0.380044,-0.37721 -0.633819,-0.59585 -0.773625,-0.64535 z m -107.499954,0.2445 c 0.12264,0.0206 0.25773,0.0751 0.39883,0.16235 0.56438,0.34882 1.02616,0.83739 1.02616,1.08628 0,0.24888 -0.46178,0.45296 -1.02616,0.45296 -0.56439,0 -1.02616,-0.4906 -1.02616,-1.08829 0,-0.44827 0.25935,-0.67516 0.62733,-0.6133 z m 15.72906,4.16677 c 2.07776,0.057 5.34413,1.70086 4.95641,2.86402 -0.65238,1.95718 -2.1609,1.93311 -4.77603,-0.0762 -1.47419,-1.13264 -2.01893,-2.14762 -1.36889,-2.54936 0.2934,-0.18133 0.70902,-0.25164 1.18851,-0.23851 z m 175.021879,4.80409 c -1.128773,-0.031 -2.744969,0.39287 -3.591548,0.93997 -1.368207,0.88426 -1.368207,0.98815 0,0.93797 0.846579,-0.031 2.462775,-0.4529 3.591548,-0.93797 l 2.052314,-0.88184 z m -6.156941,1.96613 c -0.282194,0 -0.513079,0.2309 -0.513079,0.51309 0,0.28219 0.230885,0.51307 0.513079,0.51307 0.282193,0 0.513078,-0.23088 0.513078,-0.51307 0,-0.28219 -0.230885,-0.51309 -0.513078,-0.51309 z m 22.24275,0.21847 c 3.624007,0.13977 9.381288,3.41842 8.788468,5.19893 -0.695203,2.08795 -3.095085,1.92869 -7.858513,-0.5211 -5.345877,-2.74935 -5.878042,-4.27802 -1.62341,-4.6638 0.22012,-0.02 0.451857,-0.0232 0.693455,-0.014 z m -191.035548,3.13057 c 0.55815,0.0545 1.01613,0.60147 1.01613,1.69557 0,1.26046 -0.66149,2.1385 -1.61337,2.1385 -0.95561,0 -1.47909,-0.69903 -1.28271,-1.71161 0.28085,-1.44808 1.16233,-2.1925 1.87995,-2.12246 z m 53.682853,1.01214 c 0.896741,-0.0293 1.50315,0.1423 1.871933,0.51107 2.194198,2.1942 0.304366,4.53218 -5.283115,6.53774 -10.17407,3.65185 -9.62633,3.63117 -8.8045,0.35676 0.89486,-3.56539 2.8512,-5.09403 8.604085,-6.71613 1.527793,-0.43077 2.714842,-0.66013 3.611597,-0.68944 z m -37.895662,0.12429 c 1.59061,-0.0659 4.34524,0.15001 8.33151,0.64536 8.84097,1.09862 14.86525,3.18934 14.86525,5.15685 0,1.78057 -7.4938,0.9687 -15.90544,-1.72364 -4.51507,-1.44514 -8.40098,-2.80883 -8.63615,-3.03036 -0.67162,-0.63274 -0.24579,-0.98229 1.34483,-1.04821 z m -16.222101,3.73386 c 2.58939,-0.0333 6.16778,0.77804 8.75239,2.23067 2.19328,1.2327 3.98638,2.53003 3.98638,2.88407 0,0.35404 0.941651,1.65489 2.092401,2.89008 3.16434,3.39651 0.72978,2.68911 -2.994291,-0.86983 -3.86704,-3.69555 -7.17604,-5.0927 -12.05133,-5.0927 -2.12889,0 -3.32879,-0.41684 -2.95221,-1.02616 0.41482,-0.67118 1.61302,-0.99617 3.16666,-1.01613 z m -29.71445,0.0221 c 0.63637,-0.0179 1.73051,0.6606 2.43311,1.50719 1.62214,1.95455 0.95953,1.96751 -1.59936,0.0319 -1.09555,-0.82862 -1.47013,-1.52127 -0.83375,-1.53923 z m 47.559951,4.39927 c 2.72308,0.21593 10.22358,3.94729 12.75482,6.74617 2.59555,2.86998 1.7763,2.72837 -2.51128,-0.43492 -1.93573,-1.42814 -5.2569,-3.11732 -7.38151,-3.75388 -2.12462,-0.63654 -3.86412,-1.57731 -3.86412,-2.0904 0,-0.37924 0.37369,-0.51681 1.00209,-0.46697 z m 0.30666,5.99459 c 0.1138,-0.003 0.30997,0.0805 0.58523,0.25053 0.65158,0.4027 1.18448,0.9356 1.18448,1.18448 0,0.85596 -0.90635,0.44937 -1.63744,-0.73354 -0.28352,-0.45875 -0.32203,-0.69729 -0.13227,-0.70147 z m 68.968966,6.50567 2.743767,10.26156 c 1.624795,6.07621 2.779257,13.16396 2.829948,17.37855 0.0916,7.61552 -2.547421,18.80469 -6.05673,25.68799 -1.137648,2.23145 -2.068347,4.63708 -2.068347,5.34724 0,0.71015 -3.578727,3.01251 -7.952714,5.11676 -4.373996,2.10424 -8.283871,4.00105 -8.690269,4.21284 -1.137929,0.59299 -4.765389,-5.86003 -6.461576,-11.49616 -2.108965,-7.00762 -1.950157,-7.41421 1.469084,-3.75388 4.054271,4.34009 12.400057,7.8554 12.400057,5.22297 0,-0.56439 -0.600939,-1.02616 -1.336801,-1.02616 -1.881937,0 -6.987741,-5.69903 -10.802707,-12.05735 l -3.232796,-5.38732 3.838068,0.0321 c 2.111225,0.0183 6.377808,0.90715 9.481922,1.97415 5.42521,1.86483 5.554524,1.86572 3.318976,0.0441 -1.279103,-1.04228 -4.511495,-2.6856 -7.183089,-3.65169 -13.983995,-5.05679 -17.757482,-8.33754 -9.770538,-8.49786 5.193487,-0.10421 8.503876,-2.31628 8.503876,-5.68194 0,-2.07658 -0.03386,-2.07191 -1.597364,0.16034 -1.022886,1.46038 -2.662348,2.28079 -4.557573,2.28079 -3.510461,0 -5.30983,-2.03232 -1.857913,-2.0984 2.076743,-0.0397 1.92535,-0.29228 -1.222568,-2.03629 -1.975342,-1.09439 -5.438627,-3.62442 -7.696181,-5.62382 -3.526364,-3.12315 -3.720639,-3.49569 -1.386908,-2.64756 5.302176,1.92694 3.795667,-0.23026 -2.112438,-3.02436 -6.746872,-3.19076 -8.157472,-4.70565 -6.112862,-6.56981 2.65174,-2.41769 21.413019,-4.79024 21.413019,-2.7077 0,1.97995 5.405307,7.26328 7.431615,7.26328 1.165312,0 3.812894,-1.83493 5.882362,-4.07658 2.754549,-2.98367 4.702528,-4.1522 7.273296,-4.36116 z m 66.327415,1.41498 c 0.137417,0.0101 0.242686,0.14848 0.402847,0.30864 0.774295,0.77429 -3.454098,13.92792 -6.259158,19.47294 -1.32963,2.62841 -4.72401,7.82676 -7.543856,11.55227 -5.075675,6.70591 -5.093005,6.75682 -1.825836,5.10875 1.815114,-0.91561 4.568804,-2.85294 6.120864,-4.30505 3.333866,-3.11921 3.75976,-1.32191 0.703479,2.97025 -3.448695,4.84324 -11.207219,8.61918 -30.71856781,14.95143 -7.54447299,2.44849 -15.70406319,3.55359 -16.51671619,2.23869 -0.519985,-0.84135 -1.593053,-0.83594 -4.048511,0.0201 -4.344476,1.51449 -6.173492,1.47715 -5.541647,-0.1162 0.504499,-1.27223 14.630867,-10.00565 22.5153252,-13.91925 6.101398,-3.02854 23.9248928,-15.96467 29.5200478,-21.42503 2.690293,-2.6255 6.574578,-7.34778 8.632143,-10.49607 3.434647,-5.25538 4.147331,-6.39181 4.559586,-6.36136 z m -195.510952,13.0253 c 0.067,0.008 0.11873,0.0596 0.15232,0.16033 0.88648,2.65944 -7.16431,29.86059 -11.3198,38.24638 -2.6102,5.26741 -5.03438,8.85267 -6.11885,9.05304 -2.49974,0.46183 -2.30624,-0.61391 1.93807,-10.83679 2.05304,-4.94498 4.98565,-12.68506 6.51771,-17.20015 3.22736,-9.51122 7.82587,-19.53453 8.83055,-19.42281 z m 17.78338,2.83194 c 0.15839,0.009 0.30985,0.0312 0.45495,0.0702 1.20288,0.3228 2.59009,0.59306 3.08249,0.60127 1.47759,0.0231 -1.56749,3.12053 -4.61771,4.69786 -3.53587,1.82847 -5.00051,1.86575 -5.00051,0.12631 0,-2.39129 3.70482,-5.61522 6.08078,-5.49555 z m 151.506455,5.31918 c 1.623485,-0.27641 -0.473689,2.2861 -6.3232908,7.49977 -5.731201,5.10814 -17.8635462,12.38471 -17.8635462,10.7145 0,-1.86942 9.1295312,-9.60063 17.2522622,-14.6107 3.6475418,-2.24979 5.9604858,-3.43771 6.9345748,-3.60357 z m -28.89874,1.70759 c -0.245318,-0.0369 -0.418881,0.27739 -0.418881,0.84177 0,0.75255 0.30918,1.05968 0.685441,0.68344 0.37625,-0.37627 0.37625,-0.99262 0,-1.36888 -0.09408,-0.0941 -0.184788,-0.14404 -0.26656,-0.15633 z m 34.394293,26.9787 c 4.695095,0.0252 8.425021,1.00105 12.376013,2.9903 5.449616,2.74374 6.157047,4.31686 2.659591,5.91041 -3.261114,1.48588 -3.424596,2.92172 -0.336707,2.9522 1.269866,0.0127 3.463279,0.92658 4.874243,2.03028 l 2.565393,2.00621 -3.583533,-1.00412 c -5.354624,-1.49875 -7.27033,-1.1245 -2.657586,0.51911 2.210566,0.78765 5.185884,2.60045 6.613903,4.02846 3.347935,3.34794 2.596651,3.92511 -1.739658,1.3348 -7.607374,-4.54427 -19.307639,-7.02006 -36.8254038,-7.79438 -9.153391,-0.40459 -16.9643482,-1.05893 -17.3584842,-1.45304 -1.120625,-1.12064 31.413404,-0.78962 36.446606,0.37077 5.800491,1.33728 6.795955,0.43421 1.186494,-1.07626 -2.601612,-0.70054 -13.275829,-1.1226 -27.2973758,-1.07828 -12.6635542,0.04 -23.0243952,-0.14768 -23.0243952,-0.41887 0,-1.31659 5.191613,-2.94833 13.205757,-4.14872 4.8709062,-0.72958 13.70473919,-2.31845 19.6292582,-3.53141 5.3789278,-1.10128 9.6141428,-1.65699 13.2658848,-1.63746 z m 9.209357,3.75991 c -5.802701,-0.16914 -18.8940258,0.93851 -24.5255518,2.379 l -5.643862,1.44302 7.183098,-0.4309 c 20.0632258,-1.20528 25.1916188,-1.75435 25.8142608,-2.7618 0.231729,-0.37495 -0.893712,-0.57294 -2.827945,-0.62932 z M -169.5177,453.2372 c 1.15655,-0.031 1.41665,2.74468 0.41487,5.35526 -0.34258,0.89274 -1.06361,1.62342 -1.60338,1.62342 -1.4403,0 -0.56373,-6.43964 0.94399,-6.93458 0.085,-0.0279 0.16741,-0.0421 0.24452,-0.0441 z m 11.56831,1.02215 c 0.59893,0.12138 1.41866,1.44805 1.91404,3.87015 0.56604,2.76772 0.24492,3.85767 -1.72163,5.82423 -3.22191,3.2219 -5.5855,3.12347 -2.55136,-0.10623 1.90191,-2.02449 2.25311,-3.25862 1.77173,-6.22507 -0.38957,-2.40066 -0.0113,-3.48441 0.58722,-3.36308 z m 142.59373,0.86783 c 1.191432,0.0612 3.458036,0.55809 6.9566212,1.49715 3.104123,0.83317 7.171437,1.51801 9.03899999,1.5252 1.99988601,0.008 3.13532501,0.43582 2.76180401,1.04019 -0.348812,0.56439 -1.645497,0.97122 -2.88205701,0.90389 -4.68896699,-0.25509 -15.27420719,-2.74586 -16.38243519,-3.8541 -0.800478,-0.80047 -0.684366,-1.17353 0.507067,-1.11233 z m 44.924427,0.016 c -0.247989,0 -0.495307,0.0945 -0.683437,0.2826 -0.37625,0.37625 -0.06906,0.68543 0.683437,0.68543 0.752551,0 1.061691,-0.30918 0.68544,-0.68543 -0.188129,-0.18813 -0.437451,-0.2826 -0.68544,-0.2826 z m -9.972961,4.281 c 1.300128,-0.0778 6.67794,2.81258 9.522014,5.27108 2.205362,1.90639 3.62765,3.94823 3.343025,4.80209 -0.376681,1.13006 -0.774779,0.96539 -1.661492,-0.69145 -0.641234,-1.19816 -3.489662,-3.66934 -6.329303,-5.49154 -2.839651,-1.8222 -5.162852,-3.47169 -5.162852,-3.66571 0,-0.14221 0.102878,-0.21336 0.288608,-0.22447 z m -39.679405,1.89399 c 0.435633,0.006 1.112924,0.49362 2.082378,1.46307 1.979187,1.97923 9.7713732,2.00315 17.25426719,0.054 6.55108101,-1.70634 9.71893701,-1.0092 16.56281181,3.64165 3.79177,2.57675 7.595969,6.93992 7.595969,8.71233 0,0.37392 -2.066532,-1.22606 -4.593659,-3.55548 -6.346732,-5.85022 -6.652403,-5.31961 -0.487023,0.84577 5.797032,5.79704 6.92205,9.06148 1.475102,4.27898 -1.982965,-1.74105 -5.099921,-3.90682 -6.92656,-4.8141 -2.681438,-1.33185 -2.135025,-0.53435 2.835961,4.14069 6.863844,6.45525 6.762651,6.53651 -2.278789,1.82385 -5.7265978,-2.98488 -11.9707788,-4.89891 -6.9566238,-2.1325 2.727122,1.50461 7.6961768,6.15615 7.6961768,7.20516 0,0.4588 -1.269871,0.87138 -2.821931,0.91592 -1.5520308,0.0446 -2.2422248,0.31541 -1.5332228,0.60126 2.1037628,0.84816 0.3534828,2.39704 -2.709696,2.39704 -2.620022,0 -2.802019,0.25766 -2.350941,3.33101 0.402601,2.74312 0.234611,3.13282 -0.947992,2.21065 -0.789977,-0.61601 -2.334087,-1.44177 -3.43121001,-1.83587 -1.97560799,-0.70965 -1.97560799,-0.69419 0,1.51719 l 1.99419001,2.2327 -2.56539101,-0.76561 c -1.41096499,-0.42065 -3.00327399,-1.17457 -3.53943999,-1.67553 -0.536167,-0.50095 -1.628568,-0.90991 -2.427102,-0.90991 -0.798543,0 1.128196,2.12235 4.280998,4.71792 5.617679,4.62478 11.9471108,14.65053 11.9471108,18.92177 0,0.96952 -0.6926568,2.33779 -1.5392348,3.04039 -1.323762,1.09862 -1.539237,0.71151 -1.539237,-2.75378 0,-2.6851 -0.979083,-5.54999 -2.934167,-8.59007 -3.89838501,-6.06185 -6.578336,-8.35554 -14.3581792,-12.28381 -6.911906,-3.49002 -12.567944,-4.14766 -16.773255,-1.9481 -1.299636,0.67977 0.874971,-1.94507 4.832157,-5.83427 3.957197,-3.88919 7.949828,-8.25323 8.87265,-9.69637 0.922832,-1.44314 4.2813532,-4.41612 7.4636882,-6.60789 4.91505099,-3.38511 6.56200999,-3.97431 10.940996,-3.90822 4.94408,0.0746 5.0634078,0.0128 2.882057,-1.51517 -2.061403,-1.44388 -2.875427,-1.43227 -8.69427401,0.11822 -10.64585319,2.83672 -19.93790619,1.94432 -19.93790619,-1.91602 0,-0.95652 0.19369,-1.4328 0.629321,-1.427 z m 37.705253,0.94999 c 1.298477,0 12.97327,8.39231 12.97327,9.3256 0,1.25206 0.128325,1.30183 -5.130784,-2.02426 -4.43479,-2.80474 -9.264553,-7.30134 -7.842486,-7.30134 z m -45.45955,0.1162 c 0.571757,0.0508 1.673084,1.13053 3.08849,3.21876 1.243261,1.83426 3.468381,4.37079 4.944394,5.63786 2.063219,1.77117 2.288113,2.30474 0.968034,2.30885 -2.562763,0.008 -7.690688,-4.71921 -8.908725,-8.21327 -0.706,-2.02523 -0.663952,-3.00298 -0.09219,-2.9522 z m -5.154836,1.93607 c 0.546202,0 0.992085,0.77919 0.992085,1.73365 0,1.53299 0.164778,1.51131 1.414974,-0.19843 1.303475,-1.7826 1.473921,-1.59133 2.154531,2.43713 0.814531,4.82116 0.140345,6.88647 -0.897889,2.74978 -0.359903,-1.43395 -1.153008,-2.49274 -1.761703,-2.35495 -0.608705,0.13779 -1.508234,-0.78846 -2.000204,-2.05833 -0.550144,-1.42004 -0.512581,-2.30885 0.0982,-2.30885 z m 44.603752,2.05232 c -0.282193,0 -0.513078,0.23088 -0.513078,0.51308 0,0.28218 0.230885,0.51308 0.513078,0.51308 0.282193,0 0.513079,-0.2309 0.513079,-0.51308 0,-0.2822 -0.230886,-0.51308 -0.513079,-0.51308 z m -46.808385,1.02616 c 0.498558,0 1.171506,1.01752 1.497146,2.26275 0.789206,3.01794 0.08422,3.5466 -1.294722,0.97005 -1.346332,-2.51565 -1.390969,-3.2328 -0.202424,-3.2328 z m 38.0860512,1.1504 c -0.650966,0 -1.301936,0.0653 -1.795773,0.19442 -0.98767501,0.25811 -0.17957501,0.46899 1.795773,0.46899 1.97535,0 2.783449,-0.21088 1.795775,-0.46899 -0.493838,-0.12905 -1.144807,-0.19442 -1.795775,-0.19442 z m 5.643864,0.90191 c -0.282194,0 -0.513079,0.23088 -0.513079,0.51308 0,0.28219 0.230885,0.51308 0.513079,0.51308 0.282193,0 0.513078,-0.23089 0.513078,-0.51308 0,-0.2822 -0.230885,-0.51308 -0.513078,-0.51308 z m -15.392352,4.10462 c -0.282194,0 -0.513079,0.23089 -0.513079,0.51308 0,0.2822 0.230885,0.51308 0.513079,0.51308 0.282193,0 0.513077,-0.23088 0.513077,-0.51308 0,-0.28219 -0.230884,-0.51308 -0.513077,-0.51308 z m -2.052314,1.02616 c -0.282194,0 -0.513079,0.23089 -0.513079,0.51308 0,0.2822 0.230885,0.51307 0.513079,0.51307 0.282193,0 0.513077,-0.23087 0.513077,-0.51307 0,-0.28219 -0.230884,-0.51308 -0.513077,-0.51308 z M -141.70724,491.00056 c 1.61676,0 1.0194,3.15485 -1.18249,6.24713 -1.16939,1.64223 -1.78498,3.55063 -1.37489,4.26296 0.40836,0.70933 0.36778,0.95163 -0.0902,0.53713 -0.45797,-0.41451 -1.44126,0.0473 -2.1846,1.02615 -1.19665,1.57586 -1.35398,1.3472 -1.3829,-1.99018 -0.0317,-3.66237 3.9259,-10.08319 6.21506,-10.08319 z m 55.111831,0.14029 c 2.03251,-0.0134 3.28691,0.21603 3.28691,0.73756 0,0.64542 -1.20301,1.17447 -2.67361,1.17447 -4.72322,0 -14.904811,3.11898 -22.246761,6.81632 -7.7898,3.92288 -16.0397,10.99908 -19.86979,17.04182 -2.9552,4.66247 -5.86227,5.27483 -4.87223,1.02616 2.32902,-9.99468 13.90083,-20.24187 26.76828,-23.70384 6.902441,-1.85708 15.135681,-3.06296 19.607201,-3.09249 z m 66.313394,1.29673 c 1.539703,0.008 2.965,0.55628 5.503568,1.83185 8.0320092,4.03588 7.9528622,4.86691 -1.256641,13.3701 -4.452141,4.11069 -10.903686,9.49289 -14.338138,11.95914 -7.423604,5.3308 -8.810524,6.92123 -8.810524,10.11326 0,1.32294 -0.708124,3.48567 -1.573301,4.8061 -1.457692,2.22473 -1.423349,2.44107 0.446943,2.93016 1.408544,0.36834 2.202975,1.72443 2.633537,4.48943 1.193542,7.66499 4.479048,18.57575 13.239824,43.98245 7.283757,21.12325 9.021175,27.37423 9.840683,35.40041 0.861992,8.44217 0.77588,9.95394 -0.639343,11.28773 -1.479851,1.39469 -1.576719,1.22852 -1.024153,-1.75569 0.335573,-1.81238 0.16309,-3.57085 -0.382805,-3.90822 -0.545904,-0.33739 -0.992084,-2.38479 -0.992084,-4.54957 0,-4.35888 -2.791675,-14.10682 -7.2793,-25.41942 -1.617654,-4.07789 -4.608602,-13.3133 -6.647975,-20.52314 -2.144071,-7.57998 -6.035576,-17.86833 -9.225389,-24.39528 -5.15399,-10.54604 -5.557673,-11.92828 -6.150933,-21.03622 l -0.635333,-9.74848 7.016754,-9.7545 c 11.398708,-15.84314 12.822552,-17.38595 17.113967,-18.551 1.270706,-0.34498 2.236821,-0.53406 3.160643,-0.52911 z m -95.667095,35.51665 c 9.16058,-0.0183 9.76324,1.60181 0.91994,2.47318 -6.26802,0.61766 -6.99594,0.91279 -6.54176,2.64958 0.52028,1.98954 -0.68417,2.5693 -6.88847,3.323 -1.41098,0.17139 -2.45361,0.86822 -2.31687,1.54724 0.1715,0.85165 -1.57913,1.22031 -5.64387,1.18849 -3.24087,-0.0254 -9.12477,0.43858 -13.07548,1.03018 -8.95832,1.34144 -12.90599,1.36542 -14.87927,0.0902 -1.1401,-0.73678 -0.47485,-1.01323 2.56539,-1.06424 4.87416,-0.0818 18.14673,-3.6043 30.27163,-8.03488 6.47832,-2.36726 10.48921,-3.19247 15.58876,-3.20273 z m 129.957169,85.05076 3.896188,7.41359 c 2.142236,4.07666 6.913381,10.70919 10.602287,14.73898 9.29492,10.15384 18.443135,21.93316 20.212485,26.0267 1.230968,2.84797 1.281362,4.77472 0.298622,11.28774 -2.407672,15.95681 -8.769502,32.35155 -15.927473,41.04627 -2.552335,3.1003 -4.965719,6.1952 -5.363272,6.87645 -0.526655,0.90246 -8.455308,1.36126 -29.2134038,1.69155 -15.6697382,0.24913 -28.6985552,0.24629 -28.9528562,-0.008 -0.254303,-0.25429 0.02038,-1.36707 0.611284,-2.47117 0.756821,-1.41416 1.752216,-1.83633 3.367078,-1.43102 3.402435,0.85395 6.405899,-1.83147 8.247335,-7.3755 1.120613,-3.37387 5.75529,-10.04271 14.7049082,-21.15647 15.4503448,-19.18612 18.7113278,-23.85954 18.7113278,-26.81002 0,-1.21006 -1.937492,-5.15753 -4.305049,-8.77244 -5.6032108,-8.55526 -7.9503258,-15.385 -7.9026088,-22.99032 0.0481,-7.66743 0.337849,-8.30736 6.22308,-13.68678 z m 116.637161,17.5529 c -0.2822,0 -0.51308,0.23089 -0.51308,0.51308 0,0.2822 0.23088,0.51308 0.51308,0.51308 0.28219,0 0.51307,-0.23088 0.51307,-0.51308 0,-0.28219 -0.23088,-0.51308 -0.51307,-0.51308 z m -141.353111,3.19673 c 2.1164062,0.0654 3.0348692,0.3318 2.0402882,0.59124 -0.994591,0.25945 -1.5786762,0.84176 -1.29873,1.29471 0.279936,0.45295 -0.9848152,1.17133 -2.8099062,1.59737 l -3.318976,0.77562 3.078472,0.72753 c 2.522946,0.59692 2.754418,0.87059 1.282695,1.51318 -0.987675,0.43123 -1.795774,1.39369 -1.795774,2.1385 0,0.74481 -0.808099,1.56573 -1.795775,1.82383 -1.710262,0.44695 -1.710262,0.47386 0,0.58724 0.987676,0.0655 1.795775,0.58202 1.795775,1.1464 0,0.5644 -0.808099,1.03198 -1.795775,1.04019 -1.420262,0.0127 -1.499249,0.20349 -0.3808,0.91191 0.777805,0.49265 1.097296,1.4088 0.70949,2.03629 -0.803121,1.29947 -0.935109,1.29939 -5.431414,0 l -3.306952,-0.95401 2.128473,-4.08258 c 1.170362,-2.24538 2.889336,-4.12022 3.82003,-4.16475 1.065138,-0.051 1.216259,-0.27346 0.40886,-0.59926 -3.770456,-1.52141 1.477895,-6.54403 6.670019,-6.38341 z m -13.332023,16.18801 c 0.860123,0.0316 1.825293,0.29992 3.084484,0.81371 4.572005,1.86558 4.260689,3.62284 -0.527108,2.97626 -2.116446,-0.28583 -3.039989,-0.27357 -2.052315,0.0281 2.558228,0.78127 2.222971,2.43525 -0.513077,2.53131 -1.269869,0.0446 -1.731639,0.3146 -1.026157,0.59926 2.43474,0.98244 1.269201,2.15873 -3.274884,3.30295 -5.777032,1.45467 -5.703989,1.45981 -5.703989,-0.50105 0,-2.05228 4.585714,-7.59828 7.555881,-9.13921 0.841572,-0.43663 1.597042,-0.6429 2.457165,-0.61129 z m -37.007791,80.92612 c 1.57728,-0.038 1.76159,0.25905 1.186494,0.95199 -0.702075,0.84595 -3.445286,1.35283 -7.325388,1.35283 -7.85019,0 -7.12069,-0.83118 1.657472,-1.88796 2.087593,-0.25133 3.535066,-0.3941 4.481422,-0.41686 z m 122.635769,0.42087 c 11.941325,0.12125 28.803049,0.88507 35.193972,1.87394 3.950714,0.61128 11.108154,1.27559 15.905434,1.4771 4.79727,0.20153 9.55725,0.41518 10.57823,0.475 1.02099,0.0598 1.57139,0.572 1.22258,1.13639 -0.41801,0.67636 11.89237,1.0474 36.11191,1.09029 24.9009,0.0441 35.94107,0.38782 34.24797,1.06424 -4.47312,1.78706 -99.293088,1.78701 -104.736138,0 -0.282188,-0.0927 0.308503,-0.79138 1.312762,-1.55326 1.750456,-1.32799 1.750456,-1.41659 0,-2.12648 -1.004259,-0.40725 -11.163017,-0.98844 -22.575449,-1.2927 -13.414795,-0.35767 -20.525622,-0.915 -20.116288,-1.57732 0.297206,-0.48089 5.690224,-0.63993 12.855017,-0.5672 z m -222.589874,0.92193 c 25.16729,0.16396 73.453831,1.37647 73.001461,2.10844 -0.62896,1.01767 -37.001041,0.91501 -60.469111,-0.17036 -8.46578,-0.39153 -18.39386,-0.80851 -22.06237,-0.92595 -3.66851,-0.11734 -6.03927,-0.46337 -5.26908,-0.76961 0.59016,-0.23466 6.41003,-0.29717 14.7991,-0.24252 z" />
        <text
           xml:space="preserve"
           style="font-style:normal;font-weight:normal;font-size:85.3333px;line-height:1.25;font-family:sans-serif;fill:#000000;fill-opacity:1;stroke:none"
           id="text1895"><textPath
             xlink:href="#circle1979"
             id="textPath1982"
             style="font-style:normal;font-variant:normal;font-weight:bold;font-stretch:normal;font-size:85.3333px;font-family:'Comic Sans MS';-inkscape-font-specification:'Comic Sans MS Bold';fill:#ffffff;fill-opacity:1">SAMCOIN</textPath></text>
        <path
           id="circle1979"
           style="fill:none;stroke:none;stroke-width:0.779692;stroke-opacity:1"
           d="m -188.95622,306.15124 a 255.02031,260.22708 45.468891 0 1 364.35286,-0.70006 255.02031,260.22708 45.468891 0 1 -6.6632,364.2926 255.02031,260.22708 45.468891 0 1 -364.35285,0.70005 255.02031,260.22708 45.468891 0 1 6.66319,-364.29259 z" />
      </g>
    </g>
  </g>
</svg>
